<svg width="30" height="32" viewBox="0 0 30 32" fill="none" xmlns="http://www.w3.org/2000/svg">
<path fill-rule="evenodd" clip-rule="evenodd" d="M15.0001 10.3846H23.077V4.61539H15.0001V10.3846ZM6.92316 31.1538H23.077V17.3078H6.92316V31.1538ZM30 9.51882V0V5.19237L25 0H3.33342V0.00296545C3.07143 0.00116039 2.79525 0.000128932 2.5 0.000128932C1.11939 0.000128932 0 1.16245 0 2.59631V28.5578C0 29.9915 1.11939 31.1538 2.5 31.1538C2.82336 31.1538 3.09876 31.1502 3.33342 31.1399V31.1537H4.61552V30.5355C4.68463 30.1916 4.61552 29.6632 4.61552 28.8461V17.3076C4.61552 15.5224 5.24549 15 6.92316 15H23.077C24.7907 15 25.3846 15.5946 25.3846 17.3076V31.1537H26.6667V31.1383C26.9037 31.1542 27.1788 31.1537 27.4999 31.1537C28.8807 31.1537 30 29.9912 30 28.5576V9.51921C30 9.51908 30 9.51895 30 9.51882ZM25.3847 9.23079C25.3847 10.9799 24.7909 11.5384 23.0771 11.5384H8.07697C6.36333 11.5384 5.76947 10.9078 5.76947 9.23079V5.76934C5.76947 4.02011 6.3632 3.46171 8.07697 3.46171H23.077C24.8268 3.46171 25.3846 4.02024 25.3846 5.76934V9.23079H25.3847Z" fill="#030303"/>
</svg>
