<svg width="20" height="16" viewBox="0 0 20 16" fill="none" xmlns="http://www.w3.org/2000/svg">
<path d="M12.81 2.36L11.04 4.14C10.3616 3.95796 9.64719 3.95777 8.9687 4.13944C8.29021 4.32111 7.67152 4.67824 7.17485 5.1749C6.67819 5.67157 6.32106 6.29026 6.13939 6.96875C5.95772 7.64724 5.95791 8.36161 6.13995 9.04L3.37995 11.79C2.05995 10.79 0.959951 9.49 0.199951 8C1.34087 5.76284 3.21294 3.98342 5.50508 2.95741C7.79722 1.9314 10.3714 1.72059 12.8 2.36H12.81ZM16.61 4.21C17.94 5.21 19.0399 6.51 19.8099 8C18.6683 10.2413 16.7929 12.0236 14.4965 13.0499C12.2001 14.0762 9.62131 14.2845 7.18995 13.64L8.95995 11.86C9.63834 12.042 10.3527 12.0422 11.0312 11.8606C11.7097 11.6789 12.3284 11.3218 12.825 10.8251C13.3217 10.3284 13.6788 9.70974 13.8605 9.03125C14.0422 8.35276 14.042 7.63839 13.86 6.96L16.62 4.21H16.61ZM16.36 0.220001L17.78 1.64L3.63995 15.78L2.21995 14.36L16.36 0.220001Z" fill="white"/>
</svg>
