<svg width="20" height="18" viewBox="0 0 20 18" fill="none" xmlns="http://www.w3.org/2000/svg">
<path d="M18.4807 16.7209H1.51945C1.16286 16.7209 0.883789 17.0155 0.883789 17.3566C0.883789 17.6977 1.17836 17.9922 1.51945 17.9922H18.4962C18.8528 17.9922 19.1319 17.6977 19.1319 17.3566C19.1319 17.0155 18.8373 16.7209 18.4807 16.7209Z" fill="white"/>
<path d="M0.88379 11.093L0.868286 14.1163C0.868286 14.2868 0.930302 14.4574 1.05433 14.5814C1.17836 14.7054 1.3334 14.7674 1.50395 14.7674L4.5117 14.7519C4.68224 14.7519 4.83728 14.6899 4.96131 14.5659L15.3489 4.17829C15.597 3.93023 15.597 3.52713 15.3489 3.26356L12.3722 0.25581C12.1241 0.00774769 11.721 0.00774769 11.4574 0.25581L9.37991 2.34883L1.06984 10.6434C0.961309 10.7674 0.88379 10.9225 0.88379 11.093ZM11.9226 1.62015L14.0156 3.71317L12.8373 4.89147L10.7443 2.79845L11.9226 1.62015ZM2.17061 11.3721L9.82953 3.71317L11.9226 5.8062L4.26363 13.4496L2.15511 13.4651L2.17061 11.3721Z" fill="white"/>
</svg>
