<svg width="19" height="18" viewBox="0 0 19 18" fill="none" xmlns="http://www.w3.org/2000/svg">
<path d="M6.15989 12.3198C2.75709 12.3198 0 9.5627 0 6.15989C0 2.75709 2.75709 0 6.15989 0C9.56269 0 12.3198 2.75709 12.3198 6.15989C12.3198 9.5627 9.56269 12.3198 6.15989 12.3198ZM6.15989 1.24018C3.4438 1.24018 1.24018 3.4438 1.24018 6.15989C1.24018 8.87599 3.4438 11.0796 6.15989 11.0796C8.87598 11.0796 11.0796 8.87599 11.0796 6.15989C11.0796 3.4438 8.88623 1.24018 6.15989 1.24018Z" fill="white"/>
<path d="M11.7049 11.7048C11.5614 11.7048 11.4179 11.6536 11.3154 11.5613L9.85998 10.3622C9.5935 10.1469 9.56275 9.75745 9.77798 9.49096C9.99322 9.22448 10.3827 9.19373 10.6492 9.40897L12.0943 10.6081C12.3608 10.8234 12.3916 11.2129 12.1763 11.4793C12.0533 11.6228 11.8791 11.7048 11.7049 11.7048Z" fill="white"/>
<path d="M16.6245 17.0858C16.1941 17.0858 15.7738 16.932 15.4356 16.6553L11.6638 13.4882C10.8849 12.8323 10.7824 11.6638 11.4383 10.8849C12.0943 10.1059 13.2627 10.0034 14.0417 10.6594L17.8135 13.8264C18.5924 14.4824 18.6949 15.6508 18.039 16.4298C17.6905 16.8398 17.178 17.0858 16.6245 17.0858ZM12.8528 11.4588H12.8015C12.4633 11.4896 12.207 11.7868 12.2378 12.125C12.248 12.289 12.33 12.4428 12.4633 12.5453L16.2351 15.7123C16.4913 15.9276 16.8808 15.8968 17.1063 15.6406C17.2088 15.5176 17.26 15.3536 17.2497 15.1896C17.2395 15.0256 17.1575 14.8719 17.0243 14.7694L13.2525 11.6023C13.1397 11.5101 12.9963 11.4588 12.8528 11.4588Z" fill="white"/>
</svg>
